<?xml version="1.0" standalone="no"?>
<!DOCTYPE svg PUBLIC "-//W3C//DTD SVG 20010904//EN"
 "http://www.w3.org/TR/2001/REC-SVG-20010904/DTD/svg10.dtd">
<svg version="1.0" xmlns="http://www.w3.org/2000/svg"
 width="850.000000pt" height="850.000000pt" viewBox="0 0 850.000000 850.000000"
 preserveAspectRatio="xMidYMid meet">
<metadata>
Created by potrace 1.11, written by Peter Selinger 2001-2013
</metadata>
<g transform="translate(0.000000,850.000000) scale(0.100000,-0.100000)"
fill="#000000" stroke="none">
<path d="M3985 8454 c-639 -42 -1273 -227 -1820 -533 -1665 -930 -2498 -2846
-2039 -4685 256 -1025 888 -1913 1779 -2499 1151 -756 2613 -907 3893 -401
1191 471 2090 1426 2480 2634 544 1686 -40 3539 -1455 4618 -618 470 -1336
757 -2123 847 -130 15 -588 27 -715 19z m685 -329 c338 -38 674 -120 975 -237
992 -386 1777 -1149 2189 -2126 406 -965 404 -2067 -6 -3027 -59 -138 -145
-313 -191 -389 l-24 -39 -8 58 c-7 61 -86 268 -149 392 -20 40 -36 79 -36 87
0 7 -7 19 -16 26 -13 12 -12 15 14 26 28 11 101 75 94 81 -7 7 17 63 27 63 30
0 -10 52 -121 159 -38 35 -65 72 -80 108 -13 32 -28 53 -38 53 -40 0 -128
-101 -144 -163 l-7 -29 -49 64 c-26 36 -69 83 -95 106 -27 23 -42 42 -35 42 7
0 33 16 56 36 86 70 49 134 -162 279 -86 59 -111 66 -139 35 -10 -11 -23 -20
-29 -21 -14 0 -76 -94 -76 -115 0 -27 -109 -12 -210 29 -47 19 -94 38 -105 42
-17 6 -16 9 15 19 23 9 36 20 38 34 4 26 -19 30 -38 7 -7 -8 -19 -15 -27 -15
-12 0 -13 11 -8 64 8 73 4 78 -75 91 -25 4 -54 13 -65 20 -15 9 -140 15 -140
6 0 -1 -33 -3 -74 -4 -63 -2 -76 -6 -92 -26 -22 -27 -18 -54 13 -87 l19 -22
-58 -8 c-48 -8 -58 -12 -58 -29 0 -19 6 -20 83 -18 59 2 82 -1 82 -10 0 -7 16
-23 35 -36 39 -26 127 -39 270 -41 88 0 160 -16 231 -50 28 -14 84 -27 144
-35 l99 -11 76 -60 c41 -32 100 -73 129 -89 96 -53 228 -209 221 -258 -4 -23
72 -104 107 -112 45 -11 120 -102 169 -205 121 -250 157 -344 169 -438 6 -41
12 -77 15 -80 6 -7 -9 -35 -92 -159 -41 -62 -79 -113 -84 -113 -12 0 -39 54
-39 78 0 10 -3 22 -7 26 -10 10 -14 43 -12 109 0 16 -4 34 -10 41 -7 8 -6 20
4 39 8 15 11 27 7 27 -4 0 -7 21 -8 48 -3 114 -15 239 -26 260 -6 12 -18 22
-26 22 -9 0 -13 7 -9 20 3 13 0 20 -9 20 -12 0 -18 24 -17 68 1 6 -5 12 -13
12 -8 0 -13 3 -13 8 3 19 -2 32 -14 32 -7 0 -20 16 -27 35 -8 20 -31 49 -51
66 -23 19 -39 42 -43 62 -4 22 -17 39 -41 55 -20 12 -43 38 -52 57 -9 19 -26
36 -39 39 -14 4 -27 19 -35 39 -12 33 -60 64 -80 51 -5 -3 -9 0 -9 5 0 6 -6
11 -13 11 -12 0 -47 34 -47 46 0 14 -30 33 -43 28 -8 -3 -26 6 -40 20 -14 14
-28 22 -31 19 -3 -4 -6 -2 -6 4 0 6 -17 14 -37 17 -79 14 -93 18 -93 27 0 6 6
7 13 3 6 -4 3 2 -7 14 -20 23 -42 29 -48 12 -2 -6 -12 -3 -23 8 -19 17 -52 23
-152 26 -18 1 -33 4 -33 9 0 4 -13 7 -29 7 -17 0 -31 6 -35 16 -3 8 -10 12
-16 9 -5 -3 -16 -3 -22 2 -7 4 -31 9 -53 10 -21 2 -43 9 -48 16 -7 9 -10 9
-14 0 -2 -7 -9 -13 -14 -13 -6 0 -8 4 -5 8 2 4 -97 8 -220 7 -187 0 -226 -2
-234 -15 -5 -8 -12 -11 -15 -8 -4 4 -18 3 -32 -3 -13 -5 -22 -6 -20 -1 2 4 11
25 21 47 9 22 21 48 26 57 6 10 10 24 10 32 0 7 7 19 15 26 8 7 20 30 26 53 8
32 8 43 -4 55 -19 19 -34 9 -42 -28 -8 -37 -12 -37 -47 -3 -22 21 -37 27 -64
24 -39 -3 -64 12 -64 40 0 21 -34 43 -53 34 -6 -4 -1 3 12 14 13 12 19 21 15
21 -5 0 -1 5 9 11 9 5 17 17 17 24 0 8 7 15 16 15 11 0 14 5 10 16 -3 9 -6 24
-6 35 0 29 -16 23 -39 -17 -39 -66 -34 -27 5 43 21 37 43 91 50 118 7 28 13
42 13 33 2 -28 19 -31 51 -8 16 11 44 26 62 31 47 15 138 63 138 72 0 4 7 7
15 7 8 0 15 3 15 8 0 4 11 19 24 33 21 23 59 85 61 99 0 3 4 10 8 17 13 21 25
157 18 203 -4 25 -15 60 -24 79 -9 18 -19 49 -23 70 -4 20 -10 41 -15 46 -16
21 -27 93 -16 104 8 8 8 11 0 11 -5 0 -10 13 -9 30 1 16 4 30 7 30 4 0 10 12
14 28 3 15 16 37 27 50 12 12 18 22 14 22 -5 0 -4 6 2 13 6 7 9 29 8 50 -2 22
2 41 10 48 8 6 14 15 14 19 0 5 10 30 22 57 12 26 22 50 23 53 0 3 7 22 14 42
15 46 23 93 22 132 -1 16 4 34 11 38 10 8 10 11 1 15 -29 11 -9 19 55 21 37 2
75 5 85 8 30 9 18 29 -19 32 -21 1 -42 9 -48 18 -9 12 -17 13 -39 5 -16 -6
-29 -11 -30 -11 -1 0 -1 19 0 42 0 24 2 43 3 43 1 0 3 7 5 17 6 32 -41 218
-56 218 -4 0 -5 9 -2 20 3 11 0 20 -6 20 -6 0 -11 7 -11 15 0 8 -4 15 -10 15
-5 0 -16 15 -25 33 -8 18 -26 44 -40 59 -14 15 -25 30 -25 33 0 11 -83 107
-124 144 -85 78 -126 119 -126 130 0 6 -4 11 -10 11 -5 0 -27 16 -47 36 -21
20 -56 48 -78 63 -22 14 -47 33 -56 41 -10 8 -56 42 -103 75 -47 32 -86 65
-86 72 0 7 -5 13 -11 13 -18 0 -129 121 -129 139 0 9 7 25 15 35 19 25 19 36
2 36 -8 0 -19 11 -25 25 -6 14 -18 25 -27 25 -10 0 -15 10 -15 29 0 17 -5 33
-11 36 -17 11 -20 1 -10 -31 20 -61 21 -92 4 -98 -8 -4 -48 5 -89 19 -89 31
-180 34 -284 9 -41 -10 -79 -17 -84 -15 -5 1 -12 -2 -15 -7 -7 -11 -193 -54
-226 -52 -5 0 -28 3 -50 6 -22 3 -66 7 -98 9 -32 2 -61 6 -64 9 -4 3 -11 6
-17 6 -6 0 -4 -5 4 -10 8 -5 11 -10 7 -10 -15 0 -57 37 -50 44 3 3 -2 6 -11 6
-10 0 -35 19 -55 42 -64 74 -124 128 -160 146 -43 20 -139 22 -194 3 -48 -16
-167 -132 -167 -162 0 -5 -9 -19 -20 -31 -11 -12 -20 -28 -20 -37 0 -8 -3 -11
-7 -8 -4 4 -13 -7 -20 -24 -8 -19 -17 -28 -25 -23 -8 5 -9 2 -5 -9 3 -10 2
-17 -3 -17 -6 0 -10 -6 -10 -14 0 -8 -13 -27 -28 -43 -15 -15 -34 -44 -42 -63
-7 -19 -19 -42 -27 -51 -7 -8 -13 -20 -13 -26 0 -5 -9 -18 -20 -28 -11 -10
-20 -23 -20 -28 0 -6 -10 -24 -23 -41 -13 -17 -47 -80 -77 -141 -54 -109 -95
-169 -112 -159 -4 3 -8 -1 -8 -9 0 -12 -39 -62 -92 -119 -10 -10 -18 -22 -18
-28 0 -5 -4 -10 -8 -10 -4 0 -14 -16 -21 -35 -7 -19 -19 -35 -27 -35 -8 0 -14
-6 -14 -14 0 -18 -40 -47 -52 -40 -5 3 -14 1 -21 -4 -11 -9 -43 -16 -126 -27
-41 -5 -101 -27 -101 -37 0 -4 -6 -8 -14 -8 -15 0 -105 -85 -122 -115 -26 -46
-36 -128 -24 -190 6 -33 13 -85 15 -115 2 -30 10 -77 19 -104 10 -33 12 -55 6
-67 -6 -11 -6 -19 0 -21 6 -2 4 -23 -4 -56 -8 -28 -10 -50 -5 -46 5 3 9 1 9
-4 0 -6 -7 -12 -15 -16 -12 -4 -15 -24 -14 -93 0 -48 -3 -116 -6 -150 -4 -36
-3 -63 2 -63 5 0 8 -89 6 -212 -9 -573 -11 -523 22 -623 16 -49 39 -107 52
-127 13 -21 23 -41 23 -46 0 -5 -21 -6 -47 -2 -64 10 -107 2 -153 -30 -14 -9
-43 -20 -65 -23 -64 -10 -143 -36 -159 -53 -14 -14 -14 -18 0 -47 9 -18 41
-55 72 -82 l55 -51 -77 -26 c-42 -15 -74 -22 -71 -17 3 5 0 7 -7 5 -7 -3 -26
-7 -41 -11 -20 -4 -27 -10 -23 -20 3 -9 0 -15 -9 -15 -8 0 -18 -6 -22 -14 -4
-7 -28 -25 -53 -40 l-45 -27 35 32 c21 18 26 27 13 20 -31 -15 -33 -14 -33 15
0 41 -62 94 -108 94 -48 0 -107 -31 -154 -81 -21 -21 -42 -39 -48 -39 -15 0
-63 -48 -79 -79 -11 -20 -10 -26 9 -46 11 -12 25 -38 31 -58 7 -25 16 -37 35
-41 29 -8 44 -1 44 20 0 8 9 14 20 14 11 0 39 12 63 26 41 25 41 25 -13 -25
-30 -28 -69 -57 -87 -66 -17 -8 -41 -27 -51 -40 -11 -14 -23 -25 -27 -25 -12
0 -95 -88 -95 -101 0 -15 -29 -49 -43 -49 -5 0 -7 11 -3 23 5 21 1 25 -33 35
-21 7 -56 12 -79 12 -33 0 -43 -5 -59 -29 -10 -16 -38 -44 -62 -62 -25 -19
-60 -59 -78 -89 -29 -48 -32 -61 -27 -100 7 -56 27 -88 59 -96 29 -7 39 -34
30 -80 -5 -27 -2 -36 11 -41 11 -4 22 1 30 12 25 33 17 -8 -20 -108 -19 -51
-40 -116 -47 -145 -16 -64 -16 -63 -94 72 -265 463 -423 950 -491 1516 -25
201 -25 629 0 830 101 834 419 1556 952 2160 680 770 1618 1233 2653 1310 156
12 515 4 681 -15z m-1575 -1715 c-10 -11 -14 -20 -9 -20 5 0 5 -4 -1 -8 -5 -4
-15 -16 -21 -26 -6 -11 -16 -22 -23 -24 -16 -5 26 79 48 95 23 17 27 6 6 -17z
m1743 -968 c45 -34 71 -88 61 -125 -17 -61 -59 -79 -59 -26 0 17 -8 44 -17 59
-13 23 -23 28 -47 26 -17 -2 -39 -6 -49 -11 -10 -4 -20 -5 -23 -2 -10 10 37
95 59 104 24 12 27 11 75 -25z m-1590 -388 c30 -18 59 -35 65 -37 6 -2 8 -11
4 -20 -6 -16 -9 -16 -34 -3 -16 8 -44 29 -63 47 -20 18 -36 27 -38 20 -5 -15
17 -41 34 -41 8 0 14 -6 14 -14 0 -7 25 -30 55 -50 67 -44 74 -57 8 -16 -26
17 -51 30 -55 30 -5 0 -21 11 -36 25 -15 14 -31 25 -36 25 -5 0 -17 7 -27 16
-16 14 -16 17 5 38 24 25 30 24 104 -20z m-151 14 c-3 -8 -6 -5 -6 6 -1 11 2
17 5 13 3 -3 4 -12 1 -19z m11 -51 c6 -7 7 -18 3 -26 -7 -11 -11 -9 -20 7 -6
11 -11 23 -11 26 0 11 17 6 28 -7z m380 -88 c14 -10 29 -19 34 -19 6 0 24 -7
41 -15 32 -14 147 -46 222 -61 l40 -7 -50 -8 c-134 -20 -125 -20 -159 15 -25
26 -42 34 -83 39 -28 3 -75 19 -104 34 -28 15 -60 32 -70 38 -11 5 -17 16 -14
23 3 8 5 18 5 22 0 11 106 -35 138 -61z m1048 65 c13 -3 24 -17 28 -32 3 -15
10 -43 14 -63 9 -34 8 -35 -14 -31 -13 2 -24 10 -24 18 0 25 -17 23 -50 -6
-19 -17 -31 -32 -29 -35 3 -2 21 -6 40 -8 18 -2 43 -7 54 -11 11 -4 25 -9 32
-11 6 -2 14 -18 18 -35 4 -18 16 -53 27 -79 33 -78 35 -85 48 -128 7 -24 17
-43 22 -43 10 0 10 6 -1 28 -5 9 -22 62 -37 117 -16 55 -32 102 -36 103 -11 5
-10 32 1 32 5 0 12 -9 16 -20 7 -21 26 -26 135 -35 40 -3 69 -11 76 -20 21
-28 76 -42 144 -36 89 8 78 26 -16 26 -72 0 -77 2 -99 29 -21 27 -30 30 -110
36 -71 6 -88 10 -101 28 -8 11 -26 22 -41 24 -19 2 -27 9 -29 28 -1 14 -5 42
-8 63 -2 20 -1 37 4 37 12 0 103 -70 118 -92 7 -10 26 -25 43 -33 26 -14 29
-14 29 0 0 8 -4 15 -9 15 -5 0 -12 7 -15 16 -4 12 -1 14 14 9 11 -4 55 -10 98
-15 42 -5 98 -14 123 -19 35 -7 60 -6 100 4 69 19 123 19 158 1 17 -9 32 -11
42 -5 20 13 39 11 36 -3 -1 -7 8 -14 21 -16 33 -5 36 -23 18 -103 -13 -57 -14
-78 -4 -114 10 -38 10 -47 -5 -63 -15 -17 -17 -35 -12 -133 3 -63 2 -149 -1
-191 l-7 -78 -43 -25 c-23 -14 -49 -25 -58 -25 -8 0 -21 -10 -27 -22 -10 -18
-8 -24 7 -35 27 -19 31 -17 91 37 58 53 73 60 73 33 0 -31 -62 -182 -74 -179
-6 2 -8 1 -3 -1 10 -6 9 -53 -2 -53 -5 0 -11 5 -13 12 -3 7 -18 -2 -40 -23
-19 -20 -64 -50 -99 -67 -75 -38 -94 -49 -132 -79 -16 -13 -33 -23 -38 -23 -6
0 -17 -6 -24 -14 -8 -7 -51 -28 -97 -46 -46 -18 -123 -51 -173 -73 -60 -27
-102 -40 -128 -39 -50 2 -83 -14 -67 -33 22 -27 90 -15 195 35 55 26 127 55
160 65 33 9 87 34 119 56 33 21 62 36 65 34 11 -11 -91 -123 -150 -164 -120
-84 -306 -171 -367 -171 -13 0 -38 6 -55 14 -49 22 -180 62 -300 91 -167 40
-207 62 -384 207 -28 24 -65 52 -81 63 -134 89 -208 152 -226 190 -10 20 -16
39 -13 41 2 3 34 -23 71 -57 87 -81 118 -104 191 -139 34 -16 93 -59 135 -99
110 -102 206 -143 277 -118 19 7 25 4 32 -16 11 -28 69 -44 121 -32 34 8 40
20 10 22 -11 1 -45 13 -75 27 -60 29 -73 31 -109 15 -43 -20 -142 29 -226 111
-27 27 -107 90 -113 90 -11 0 -108 61 -167 105 -97 71 -148 118 -181 166 -10
13 -20 21 -25 17 -4 -5 1 -17 11 -28 26 -29 13 -34 -32 -12 -21 11 -58 25 -82
32 -23 6 -41 13 -39 15 2 3 19 0 38 -5 64 -18 68 9 5 45 -35 21 -42 30 -35 43
5 9 11 29 15 45 l5 27 62 -31 62 -31 -27 -14 c-18 -10 -27 -23 -27 -39 0 -31
18 -32 62 -5 18 11 39 20 47 20 7 0 30 19 50 41 l36 41 38 -15 c42 -18 143
-83 169 -109 10 -10 57 -43 105 -74 49 -31 100 -65 115 -75 30 -21 58 -25 58
-8 0 23 -21 47 -47 52 -25 5 -150 79 -163 96 -3 4 -21 17 -40 28 -19 12 -44
30 -55 40 -11 10 -47 36 -80 57 -33 22 -62 40 -64 42 -3 3 8 18 88 127 20 27
43 47 54 47 12 0 16 4 11 13 -6 9 -5 9 7 0 14 -11 98 -25 227 -39 46 -4 71
-13 92 -30 25 -22 32 -23 49 -12 26 16 26 21 4 40 -21 18 -56 25 -208 38 -60
5 -131 16 -157 26 l-48 16 0 68 c0 38 -4 71 -9 74 -5 3 -6 21 -2 38 4 18 6 50
5 71 -3 33 0 39 24 48 28 11 134 27 232 36 30 3 58 10 61 15 4 6 46 19 93 29
56 12 101 28 129 47 23 16 57 37 75 46 l34 17 -5 -90 c-3 -50 -2 -91 2 -91 5
0 14 43 21 95 l13 94 50 26 c53 26 67 29 103 19z m-1313 -54 c24 -16 56 -34
71 -40 30 -11 44 -36 28 -52 -7 -7 -30 1 -74 26 -71 40 -103 69 -93 85 10 17
20 14 68 -19z m277 -128 c33 -9 138 -73 144 -88 6 -15 -25 -8 -89 21 -27 12
-61 25 -75 29 -85 25 -110 39 -110 62 l0 24 53 -21 c28 -11 63 -24 77 -27z
m169 -325 c1 -47 -2 -78 -9 -82 -7 -4 -10 -1 -9 6 1 8 -3 32 -10 55 -11 33
-11 52 0 100 12 55 13 57 19 28 4 -18 8 -66 9 -107z m-510 -197 c112 -67 116
-71 101 -114 -6 -20 -17 -36 -25 -36 -18 0 -69 55 -111 118 -19 28 -39 52 -45
52 -5 0 -9 5 -9 10 0 18 23 10 89 -30z m-115 -6 c3 -9 6 -25 6 -36 0 -17 -3
-18 -15 -8 -16 13 -21 60 -6 60 5 0 12 -7 15 -16z m60 -80 c6 -15 4 -15 -11
-3 -10 7 -20 15 -22 16 -2 2 3 3 11 3 9 0 19 -7 22 -16z m2810 -413 c-2 -2
-11 2 -19 9 -13 11 -13 15 -3 21 8 5 15 2 19 -9 4 -9 5 -19 3 -21z m93 33 c-3
-3 -12 -4 -19 -1 -8 3 -5 6 6 6 11 1 17 -2 13 -5z m-673 -41 c4 -28 2 -41 -9
-49 -8 -6 -15 -16 -15 -22 0 -17 -24 -20 -52 -5 -16 7 -28 15 -28 17 0 6 85
95 91 95 4 1 9 -16 13 -36z m-119 -13 c-29 -29 -49 -40 -75 -42 -19 -1 -38 -7
-42 -13 -5 -6 -8 -3 -8 8 0 9 6 17 13 17 7 0 18 5 24 11 10 10 103 53 123 58
3 0 -13 -17 -35 -39z m1025 1 c0 -30 -14 -32 -27 -5 -10 21 -9 24 8 24 12 0
19 -7 19 -19z m-794 -75 c17 -1 37 -6 45 -12 8 -6 22 -14 33 -18 20 -7 20 -8
-15 -101 -27 -73 -28 -73 -39 -55 -9 13 -10 13 -10 0 0 -17 -64 -21 -89 -6 -9
6 -12 5 -8 0 3 -6 2 -16 -4 -24 -7 -13 -9 -12 -9 2 0 10 -10 22 -21 29 -17 9
-20 8 -13 -3 6 -10 5 -11 -8 -1 -8 7 -18 10 -21 6 -12 -12 -7 17 8 46 8 16 11
32 7 36 -4 3 0 5 8 3 10 -2 16 7 18 29 2 17 10 37 18 43 8 7 14 19 14 27 0 12
6 13 28 7 15 -4 41 -8 58 -8z m833 -23 c2 -2 -14 -3 -37 -3 -39 0 -41 1 -30
19 11 18 13 18 37 3 14 -9 28 -17 30 -19z m-4136 -80 c12 -20 -4 -15 -19 5 -7
9 -14 29 -14 44 0 15 -5 30 -12 34 -8 5 -6 10 8 14 17 6 20 1 24 -39 3 -25 9
-52 13 -58z m-86 76 c-12 -7 -16 -17 -12 -30 8 -25 -11 -25 -25 1 -9 17 -7 22
12 30 31 12 47 12 25 -1z m4660 -115 c-1 -1 -12 2 -25 7 -23 9 -23 9 -5 33
l18 24 7 -31 c3 -18 6 -32 5 -33z m-4562 6 c3 -5 1 -10 -4 -10 -6 0 -11 5 -11
10 0 6 2 10 4 10 3 0 8 -4 11 -10z m4829 -31 c33 -39 33 -45 -5 -76 -17 -15
-34 -35 -38 -45 -6 -17 -10 -16 -50 14 l-43 31 35 19 c24 12 40 29 48 53 7 19
16 35 20 35 4 0 19 -14 33 -31z m-5074 -130 c0 -5 -4 -8 -9 -5 -5 3 -14 -1
-21 -9 -13 -16 -30 -20 -30 -7 0 7 36 28 53 31 4 0 7 -4 7 -10z m-60 -34 c10
-12 8 -14 -8 -10 -14 2 -19 -1 -15 -13 5 -22 -62 -92 -89 -92 -6 0 -8 -3 -5
-6 7 -7 -28 -37 -55 -47 -12 -4 -18 -17 -18 -36 0 -25 -6 -31 -35 -41 -19 -6
-35 -16 -35 -21 0 -6 5 -7 10 -4 16 10 12 -12 -5 -29 -8 -8 -15 -26 -15 -39 0
-24 -23 -58 -62 -95 -10 -9 -18 -30 -18 -48 0 -17 -3 -34 -7 -38 -5 -4 -8 -11
-9 -14 -3 -29 -18 -61 -25 -56 -5 3 -9 -6 -9 -20 0 -14 -9 -31 -22 -40 -12 -9
-18 -16 -13 -16 6 0 3 -5 -5 -10 -13 -8 -13 -10 0 -10 11 0 11 -3 2 -12 -7 -7
-12 -26 -12 -43 0 -19 -7 -36 -20 -45 -11 -8 -20 -20 -20 -27 0 -7 -5 -13 -11
-13 -6 0 -9 -7 -5 -15 3 -8 -3 -20 -14 -28 -11 -8 -17 -17 -13 -20 3 -4 1 -7
-5 -7 -7 0 -12 -7 -12 -16 0 -8 -5 -12 -10 -9 -12 7 -29 -33 -32 -76 -2 -22
-8 -31 -26 -36 -14 -3 -21 -11 -18 -19 3 -8 1 -14 -5 -14 -6 0 -9 -6 -6 -14 3
-8 -1 -17 -9 -20 -8 -3 -14 -14 -14 -24 0 -10 -3 -22 -7 -26 -4 -4 -6 -22 -4
-41 3 -35 -23 -84 -45 -85 -15 0 -21 -18 -20 -52 1 -16 -2 -28 -7 -28 -4 0 -5
-5 -2 -10 3 -5 4 -10 1 -10 -3 0 -32 39 -65 86 -68 98 -68 94 -19 229 17 44
32 91 35 105 3 14 9 30 13 35 9 12 35 106 45 160 8 49 30 92 64 127 35 35 43
47 66 86 11 17 23 32 26 32 4 0 24 27 44 60 20 33 40 60 45 60 4 0 44 35 88
78 44 42 102 95 130 117 28 22 51 43 52 47 0 15 58 64 134 115 44 29 81 53 82
53 1 0 7 -7 14 -15z m5448 -109 c7 -19 36 -57 64 -83 81 -76 109 -108 98 -111
-5 -2 -10 -13 -10 -24 0 -12 -8 -22 -20 -25 -22 -6 -50 -50 -50 -79 0 -12 -10
-5 -34 22 l-33 38 23 19 c29 23 40 78 24 118 -15 35 -63 74 -102 84 -16 4 -28
9 -28 12 0 9 41 63 49 63 4 0 13 -16 19 -34z m-6061 -349 c8 0 7 -7 -3 -23
-19 -28 -44 -39 -44 -19 0 8 -10 25 -21 36 l-22 22 39 -8 c22 -4 44 -8 51 -8z
m-167 -277 c0 -5 -5 -10 -11 -10 -5 0 -7 5 -4 10 3 6 8 10 11 10 2 0 4 -4 4
-10z"/>
<path d="M6044 5549 c-3 -5 4 -9 15 -9 10 0 27 -3 37 -7 11 -4 15 -3 11 4 -9
14 -56 23 -63 12z"/>
<path d="M2019 3513 c-13 -15 -12 -15 11 -3 34 17 36 20 18 20 -9 0 -22 -7
-29 -17z"/>
<path d="M6900 3262 c0 -4 9 -8 20 -9 11 -1 20 2 20 8 0 5 -9 9 -20 9 -11 0
-20 -4 -20 -8z"/>
<path d="M5234 4765 c-9 -22 22 -53 37 -38 15 15 7 47 -14 51 -9 2 -20 -4 -23
-13z"/>
<path d="M4100 4750 c-65 -18 -96 -23 -223 -39 -38 -5 -71 -12 -75 -15 -26
-27 121 -22 243 8 6 1 26 6 45 10 69 15 130 38 124 47 -7 12 -37 9 -114 -11z"/>
<path d="M4342 4719 c-2 -19 2 -28 8 -24 12 7 14 55 2 55 -4 0 -9 -14 -10 -31z"/>
<path d="M5087 4603 c-4 -3 -7 -11 -7 -17 0 -6 5 -5 12 2 6 6 9 14 7 17 -3 3
-9 2 -12 -2z"/>
<path d="M4701 4500 c0 -14 6 -38 14 -55 l15 -30 -6 40 c-7 51 -23 82 -23 45z"/>
<path d="M5295 4461 c-46 -11 -97 -41 -93 -53 9 -27 37 -33 68 -14 17 10 37
15 45 13 7 -3 15 2 18 11 3 9 8 25 12 35 8 19 0 20 -50 8z"/>
<path d="M3865 4280 c-4 -12 -5 -24 -2 -27 3 -2 8 5 12 17 4 12 5 24 2 27 -3
2 -8 -5 -12 -17z"/>
<path d="M5170 3992 c0 -4 16 -15 35 -24 19 -8 35 -12 35 -7 0 5 -11 11 -25
15 -14 3 -25 10 -25 15 0 5 -4 9 -10 9 -5 0 -10 -4 -10 -8z"/>
<path d="M4986 3975 c-3 -9 0 -15 8 -15 7 0 13 7 13 15 0 8 -4 15 -8 15 -4 0
-9 -7 -13 -15z"/>
</g>
</svg>
