<?xml version="1.0" ?><svg data-name="Flat Shadow" id="Flat_Shadow" viewBox="0 0 32 32" xmlns="http://www.w3.org/2000/svg"><title/><path d="M19,2H15.162A4.387,4.387,0,0,0,11,5h0A2,2,0,0,0,9,7V9l7,2,7-2V6A4,4,0,0,0,19,2Z" style="fill:#676b74"/><path d="M11,9H23V6a3.961,3.961,0,0,0-.36-1.64A3.961,3.961,0,0,0,21,4H17.162A4.387,4.387,0,0,0,13,7,2,2,0,0,0,11,9Z" style="fill:#515560"/><path d="M12.5,23H23a6,6,0,0,1,6,6v1H3V29a6,6,0,0,1,6-6Z" style="fill:#eaf0f0"/><polygon points="12.5 19 12.5 23 16 30 19.5 23 19.5 19 12.5 19" style="fill:#fcaf70"/><path d="M11,23a6,6,0,0,0-6,6v1H16l-3.5-7Z" style="fill:#dce6e6"/><path d="M23,23H19.5L16,30H29V29A6,6,0,0,0,23,23Z" style="fill:#dce6e6"/><path d="M23,23H21a6,6,0,0,1,6,6v1h2V29A6,6,0,0,0,23,23Z" style="fill:#ced6d6"/><rect height="4" rx="2" style="fill:#fcaf70" transform="translate(32 24) rotate(-180)" width="21" x="5.5" y="10"/><path d="M19,7a11.91,11.91,0,0,1-6.606,2H9v5a6.987,6.987,0,0,0,3,5.74h8A6.987,6.987,0,0,0,23,14V9Z" style="fill:#ffc999"/><path d="M21.667,8.334,19,7a11.91,11.91,0,0,1-6.606,2H11v7a6.937,6.937,0,0,0,1,3.572l8,.162A6.979,6.979,0,0,0,23,14V9Z" style="fill:#ffbc80"/><path d="M19.221,16.9,17.6,15.721l4.588-6.309a1,1,0,0,1,1.4-.221h0a1,1,0,0,1,.221,1.4Z" style="fill:#eaf0f0"/><path d="M12.779,16.9,8.191,10.588a1,1,0,0,1,.221-1.4h0a1,1,0,0,1,1.4.221L14.4,15.721Z" style="fill:#eaf0f0"/><path d="M20,15a8.5,8.5,0,0,0-8,0v4.74a6.979,6.979,0,0,0,8,0Z" style="fill:#53dcd0"/></svg>